<?xml version="1.0" encoding="UTF-8"?>
<!DOCTYPE svg PUBLIC "-//W3C//DTD SVG 1.1//EN" "http://www.w3.org/Graphics/SVG/1.1/DTD/svg11.dtd">
<!-- Creator: CorelDRAW -->
<svg xmlns="http://www.w3.org/2000/svg" xml:space="preserve" width="564.201mm" height="382.919mm" version="1.1" style="shape-rendering:geometricPrecision; text-rendering:geometricPrecision; image-rendering:optimizeQuality; fill-rule:evenodd; clip-rule:evenodd"
viewBox="0 0 25599.95 17374.49"
 xmlns:xlink="http://www.w3.org/1999/xlink"
 xmlns:xodm="http://www.corel.com/coreldraw/odm/2003">
 <defs>
  <style type="text/css">
   <![CDATA[
    .fil0 {fill:white;fill-rule:nonzero}
   ]]>
  </style>
 </defs>
 <g id="Layer_x0020_1">
  <metadata id="CorelCorpID_0Corel-Layer"/>
  <path class="fil0" d="M1888.06 10159.25c0,-1472 -194.36,-5115.82 -360.95,-7722l2249.02 14792.45 2748.8 0 0 -17229.7 -1860.3 0 0 5960.42c0,1785.71 305.42,6611.96 555.31,9242.26l-2387.85 -15202.68 -2832.1 0 0 17229.7 1888.06 0 0 -7070.45zm8329.71 7070.45c2249.01,0 3692.84,-603.28 3692.84,-3812.74l0 -1423.74c0,-1906.37 -610.85,-2847.49 -1443.82,-3330.11 805.21,-458.49 1388.29,-1399.61 1388.29,-3354.24l0 -1447.87c0,-3112.93 -1360.51,-3861 -3637.3,-3861l-2276.79 0 0 17229.7 2276.79 0zm83.3 -15492.25c971.8,0 1527.11,506.76 1527.11,2147.68l0 1665.06c0,1954.63 -666.37,2413.12 -1582.64,2413.12l-305.42 0 0 -6225.86 360.95 0zm55.53 7818.52c888.5,0 1527.11,289.58 1527.11,2195.94l0 1520.26c0,1906.37 -583.08,2268.34 -1471.58,2268.34l-472.01 0 0 -5984.55 416.49 0zm6802.58 -3161.19c0,-844.59 166.59,-1278.96 888.5,-1278.96 721.91,0 916.27,434.36 916.27,1278.96l0 3571.42 -1804.77 0 0 -3571.42zm3803.9 7866.78l0 -1665.05 -1999.13 0 0 1954.63c0,844.59 -166.59,1278.96 -916.27,1278.96 -721.91,0 -888.5,-434.36 -888.5,-1278.96l0 -3354.24 3803.9 0 0 -4512.54c0,-2533.78 -1166.16,-3112.93 -2915.4,-3112.93 -1721.47,0 -2887.63,627.41 -2887.63,3137.06l0 7553.07c0,2533.78 1166.16,3112.93 2887.63,3112.93 1749.24,0 2915.4,-579.15 2915.4,-3112.93zm4636.87 2968.14l0 -1496.14 -360.95 0c-555.31,0 -777.44,-217.18 -777.44,-748.06l0 -9773.15 1055.1 0 0 -1496.13 -1055.1 0 0 -2775.09 -1999.13 265.44 0 2509.65 -694.14 0 0 1496.13 694.14 0 0 10062.73c0,1568.53 888.51,2051.15 2082.43,2051.15 472.01,0 832.97,-48.26 1055.1,-96.52z"/>
 </g>
</svg>
